<?xml version="1.0" encoding="UTF-8" standalone="no"?><!DOCTYPE svg PUBLIC "-//W3C//DTD SVG 1.1//EN" "http://www.w3.org/Graphics/SVG/1.1/DTD/svg11.dtd"><svg width="100%" height="100%" viewBox="0 0 970 139" version="1.1" xmlns="http://www.w3.org/2000/svg" xmlns:xlink="http://www.w3.org/1999/xlink" xml:space="preserve" style="fill-rule:evenodd;clip-rule:evenodd;stroke-linejoin:round;stroke-miterlimit:1.41421;"><g transform="matrix(1,0,0,0.98453,-16.3125,-145.446)"><g transform="matrix(1.72015,0,0,1.07,-149.983,-17.109)"><path d="M222.81,244.414l16.704,0c6.84,0 10.08,-3.24 10.08,-10.08l0,-8.208l-10.368,0l0,7.344c0,1.08 -0.36,1.44 -1.44,1.44l-13.248,0c-1.08,0 -1.44,-0.36 -1.44,-1.44l0,-28.512c0,-1.08 0.36,-1.44 1.44,-1.44l13.248,0c1.08,0 1.44,0.36 1.44,1.44l0,7.344l10.368,0l0,-8.208c0,-6.84 -3.24,-10.08 -10.08,-10.08l-16.704,0c-6.84,0 -10.08,3.24 -10.08,10.08l0,30.24c0,6.84 3.24,10.08 10.08,10.08Z" style="fill:none;"/><path d="M255.21,244.414l10.368,0l0,-21.024l17.856,0l0,21.024l10.368,0l0,-50.4l-10.368,0l0,19.872l-17.856,0l0,-19.872l-10.368,0l0,50.4Z" style="fill:none;"/><path d="M331.458,244.414l11.376,0l-15.336,-50.4l-15.12,0l-15.336,50.4l10.944,0l3.096,-10.944l17.28,0l3.096,10.944Zm-17.712,-20.448l5.976,-21.168l5.976,21.168l-11.952,0Z" style="fill:none;"/><rect x="346.074" y="194.014" width="10.368" height="50.4" style="fill:none;"/><path d="M364.218,244.414l10.08,0l0,-33.624l19.8,33.624l10.08,0l0,-50.4l-10.08,0l0,32.472l-19.08,-32.472l-10.8,0l0,50.4Z" style="fill:none;"/><path d="M425.634,244.414l32.112,0l0,-9.504l-21.744,0l0,-40.896l-10.368,0l0,50.4Z" style="fill:none;"/><rect x="461.994" y="194.014" width="10.368" height="50.4" style="fill:none;"/><path d="M480.138,244.414l10.08,0l0,-33.624l19.8,33.624l10.08,0l0,-50.4l-10.08,0l0,32.472l-19.08,-32.472l-10.8,0l0,50.4Z" style="fill:none;"/><path d="M527.874,244.414l33.912,0l0,-9.504l-23.544,0l0,-11.592l19.08,0l0,-9.36l-19.08,0l0,-10.44l23.544,0l0,-9.504l-33.912,0l0,50.4Z" style="fill:none;"/></g><g transform="matrix(1.4768,0,0,1.07,-411.565,-15.4307)"><path d="M866.507,220.438l5.792,0l0,-18.721l6.339,14.817l4.449,0l6.338,-14.817l0,18.721l5.961,0l0,-29.383l-6.632,0l-7.808,17.294l-7.807,-17.294l-6.632,0l0,29.383Z" style="fill:none;"/><path d="M906.468,220.438l7.052,0l9.108,-29.383l-6.464,0l-6.086,22.709l-6.087,-22.709l-6.632,0l9.109,29.383Z" style="fill:none;"/><path d="M924.601,220.438l6.045,0l0,-9.822l9.486,0c3.988,0 5.877,-1.889 5.877,-5.877l0,-7.807c0,-3.988 -1.889,-5.877 -5.877,-5.877l-15.531,0l0,29.383Zm6.045,-15.363l0,-8.479l8.479,0c0.63,0 0.84,0.21 0.84,0.839l0,6.8c0,0.63 -0.21,0.84 -0.84,0.84l-8.479,0Z" style="fill:none;"/></g><g transform="matrix(1.72015,0,0,1.07,-149.983,-17.109)"><path d="M222.81,244.414l16.704,0c6.84,0 10.08,-3.24 10.08,-10.08l0,-8.208l-10.368,0l0,7.344c0,1.08 -0.36,1.44 -1.44,1.44l-13.248,0c-1.08,0 -1.44,-0.36 -1.44,-1.44l0,-28.512c0,-1.08 0.36,-1.44 1.44,-1.44l13.248,0c1.08,0 1.44,0.36 1.44,1.44l0,7.344l10.368,0l0,-8.208c0,-6.84 -3.24,-10.08 -10.08,-10.08l-16.704,0c-6.84,0 -10.08,3.24 -10.08,10.08l0,30.24c0,6.84 3.24,10.08 10.08,10.08Z" style="fill-rule:nonzero;"/><path d="M255.21,244.414l10.368,0l0,-21.024l17.856,0l0,21.024l10.368,0l0,-50.4l-10.368,0l0,19.872l-17.856,0l0,-19.872l-10.368,0l0,50.4Z" style="fill-rule:nonzero;"/><path d="M331.458,244.414l11.376,0l-15.336,-50.4l-15.12,0l-15.336,50.4l10.944,0l3.096,-10.944l17.28,0l3.096,10.944Zm-17.712,-20.448l5.976,-21.168l5.976,21.168l-11.952,0Z" style="fill-rule:nonzero;"/><rect x="346.074" y="194.014" width="10.368" height="50.4" style="fill-rule:nonzero;"/><path d="M364.218,244.414l10.08,0l0,-33.624l19.8,33.624l10.08,0l0,-50.4l-10.08,0l0,32.472l-19.08,-32.472l-10.8,0l0,50.4Z" style="fill-rule:nonzero;"/><path d="M425.634,244.414l32.112,0l0,-9.504l-21.744,0l0,-40.896l-10.368,0l0,50.4Z" style="fill-rule:nonzero;"/><rect x="461.994" y="194.014" width="10.368" height="50.4" style="fill-rule:nonzero;"/><path d="M480.138,244.414l10.08,0l0,-33.624l19.8,33.624l10.08,0l0,-50.4l-10.08,0l0,32.472l-19.08,-32.472l-10.8,0l0,50.4Z" style="fill-rule:nonzero;"/><path d="M527.874,244.414l33.912,0l0,-9.504l-23.544,0l0,-11.592l19.08,0l0,-9.36l-19.08,0l0,-10.44l23.544,0l0,-9.504l-33.912,0l0,50.4Z" style="fill-rule:nonzero;"/></g><g transform="matrix(1.4768,0,0,1.07,-411.565,-15.4307)"><path d="M866.507,220.438l5.792,0l0,-18.721l6.339,14.817l4.449,0l6.338,-14.817l0,18.721l5.961,0l0,-29.383l-6.632,0l-7.808,17.294l-7.807,-17.294l-6.632,0l0,29.383Z" style="fill:#a8a8a8;fill-rule:nonzero;"/><path d="M906.468,220.438l7.052,0l9.108,-29.383l-6.464,0l-6.086,22.709l-6.087,-22.709l-6.632,0l9.109,29.383Z" style="fill:#a8a8a8;fill-rule:nonzero;"/><path d="M924.601,220.438l6.045,0l0,-9.822l9.486,0c3.988,0 5.877,-1.889 5.877,-5.877l0,-7.807c0,-3.988 -1.889,-5.877 -5.877,-5.877l-15.531,0l0,29.383Zm6.045,-15.363l0,-8.479l8.479,0c0.63,0 0.84,0.21 0.84,0.839l0,6.8c0,0.63 -0.21,0.84 -0.84,0.84l-8.479,0Z" style="fill:#a8a8a8;fill-rule:nonzero;"/></g></g><path d="M138.781,34.695c0,-19.149 -15.546,-34.695 -34.695,-34.695l-69.391,0c-19.149,0 -34.695,15.546 -34.695,34.695l0,69.391c0,19.149 15.546,34.695 34.695,34.695l69.391,0c19.149,0 34.695,-15.546 34.695,-34.695l0,-69.391Z" style="fill:#61c9d9;"/><path d="M35.853,77.786l10.011,30.034l-4.237,1.412l-13.883,-41.651l-1.695,0.691c-1.155,0.47 -2.482,-0.107 -2.934,-1.216c-0.466,-1.142 0.064,-2.438 1.2,-2.901l14.259,-5.816l0,-14.466c0,-4.928 3.992,-8.923 8.954,-8.923l13.376,0l0,-15.674c0,-1.209 0.961,-2.19 2.191,-2.19l13.483,0c1.21,0 2.19,0.96 2.19,2.19l0,15.674l13.377,0c4.945,0 8.954,4.012 8.954,8.923l0,14.46l14.272,5.822c1.129,0.46 1.652,1.793 1.2,2.901c-0.465,1.142 -1.801,1.677 -2.934,1.216l-1.707,-0.696l-13.885,41.656l-4.237,-1.412l10.079,-30.237l-33.768,-13.764l-34.266,13.967Zm-1.416,-4.249l-2.549,-7.646l37.955,-15.47l37.943,15.466l-2.483,7.447l-33.154,-13.523c-1.096,-0.447 -2.946,-0.455 -4.075,0.006l-33.637,13.72Zm8.603,-17.02l24.759,-10.099c1.129,-0.46 2.952,-0.463 4.088,0l24.746,10.094l0,-12.588c0,-2.489 -2.036,-4.508 -4.477,-4.508l-44.639,0c-2.473,0 -4.477,1.98 -4.477,4.508l0,12.593Zm22.33,-34.965l8.932,0l0,13.398l-8.932,0l0,-13.398Z" style="fill:#fff;stroke:#fff;stroke-width:3px;"/><path d="M29.626,107.031l80.34,0" style="fill:none;stroke:#daf3ff;stroke-width:11px;stroke-linecap:round;stroke-miterlimit:1.5;"/></svg>