<?xml version="1.0" encoding="UTF-8" standalone="no"?><!DOCTYPE svg PUBLIC "-//W3C//DTD SVG 1.1//EN" "http://www.w3.org/Graphics/SVG/1.1/DTD/svg11.dtd"><svg width="238px" height="13px" version="1.1" xmlns="http://www.w3.org/2000/svg" xmlns:xlink="http://www.w3.org/1999/xlink" xml:space="preserve" style="fill-rule:evenodd;clip-rule:evenodd;stroke-linejoin:round;stroke-miterlimit:1.41421;"><path d="M3.42,12.6l2.592,0l0,-10.26l3.42,0l0,-2.34l-9.432,0l0,2.34l3.42,0l0,10.26Z" style="fill:#fff;fill-rule:nonzero;"/><path d="M11.304,12.6l2.592,0l0,-5.256l4.464,0l0,5.256l2.592,0l0,-12.6l-2.592,0l0,4.968l-4.464,0l0,-4.968l-2.592,0l0,12.6Z" style="fill:#fff;fill-rule:nonzero;"/><path d="M23.796,12.6l8.478,0l0,-2.376l-5.886,0l0,-2.898l4.77,0l0,-2.34l-4.77,0l0,-2.61l5.886,0l0,-2.376l-8.478,0l0,12.6Z" style="fill:#fff;fill-rule:nonzero;"/><rect x="38.88" y="0" width="2.592" height="12.6" style="fill:#fff;fill-rule:nonzero;"/><path d="M44.316,12.6l2.52,0l0,-8.406l4.95,8.406l2.52,0l0,-12.6l-2.52,0l0,8.118l-4.77,-8.118l-2.7,0l0,12.6Z" style="fill:#fff;fill-rule:nonzero;"/><path d="M59.598,12.6l2.592,0l0,-10.26l3.42,0l0,-2.34l-9.432,0l0,2.34l3.42,0l0,10.26Z" style="fill:#fff;fill-rule:nonzero;"/><path d="M67.482,12.6l8.478,0l0,-2.376l-5.886,0l0,-2.898l4.77,0l0,-2.34l-4.77,0l0,-2.61l5.886,0l0,-2.376l-8.478,0l0,12.6Z" style="fill:#fff;fill-rule:nonzero;"/><path d="M85.662,8.01c1.188,-0.216 1.746,-1.026 1.746,-2.448l0,-3.042c0,-1.71 -0.81,-2.52 -2.52,-2.52l-6.642,0l0,12.6l2.592,0l0,-4.446l2.088,0l2.088,4.446l2.79,0l-2.142,-4.59Zm-4.824,-2.16l0,-3.51l3.618,0c0.27,0 0.36,0.09 0.36,0.36l0,2.79c0,0.27 -0.09,0.36 -0.36,0.36l-3.618,0Z" style="fill:#fff;fill-rule:nonzero;"/><path d="M89.946,12.6l2.52,0l0,-8.406l4.95,8.406l2.52,0l0,-12.6l-2.52,0l0,8.118l-4.77,-8.118l-2.7,0l0,12.6Z" style="fill:#fff;fill-rule:nonzero;"/><path d="M102.78,12.6l8.478,0l0,-2.376l-5.886,0l0,-2.898l4.77,0l0,-2.34l-4.77,0l0,-2.61l5.886,0l0,-2.376l-8.478,0l0,12.6Z" style="fill:#fff;fill-rule:nonzero;"/><path d="M115.992,12.6l2.592,0l0,-10.26l3.42,0l0,-2.34l-9.432,0l0,2.34l3.42,0l0,10.26Z" style="fill:#fff;fill-rule:nonzero;"/><path d="M129.978,12.6l4.626,0c1.71,0 2.52,-0.81 2.52,-2.52l0,-7.56c0,-1.71 -0.81,-2.52 -2.52,-2.52l-4.626,0c-1.71,0 -2.52,0.81 -2.52,2.52l0,7.56c0,1.71 0.81,2.52 2.52,2.52Zm0.432,-2.376c-0.27,0 -0.36,-0.09 -0.36,-0.36l0,-7.128c0,-0.27 0.09,-0.36 0.36,-0.36l3.762,0c0.27,0 0.36,0.09 0.36,0.36l0,7.128c0,0.27 -0.09,0.36 -0.36,0.36l-3.762,0Z" style="fill:#fff;fill-rule:nonzero;"/><path d="M139.662,12.6l2.592,0l0,-5.166l4.77,0l0,-2.34l-4.77,0l0,-2.718l5.886,0l0,-2.376l-8.478,0l0,12.6Z" style="fill:#fff;fill-rule:nonzero;"/><path d="M156.636,12.6l4.176,0c1.71,0 2.52,-0.81 2.52,-2.52l0,-2.052l-2.592,0l0,1.836c0,0.27 -0.09,0.36 -0.36,0.36l-3.312,0c-0.27,0 -0.36,-0.09 -0.36,-0.36l0,-7.128c0,-0.27 0.09,-0.36 0.36,-0.36l3.312,0c0.27,0 0.36,0.09 0.36,0.36l0,1.836l2.592,0l0,-2.052c0,-1.71 -0.81,-2.52 -2.52,-2.52l-4.176,0c-1.71,0 -2.52,0.81 -2.52,2.52l0,7.56c0,1.71 0.81,2.52 2.52,2.52Z" style="fill:#fff;fill-rule:nonzero;"/><path d="M167.85,12.6l4.626,0c1.71,0 2.52,-0.81 2.52,-2.52l0,-7.56c0,-1.71 -0.81,-2.52 -2.52,-2.52l-4.626,0c-1.71,0 -2.52,0.81 -2.52,2.52l0,7.56c0,1.71 0.81,2.52 2.52,2.52Zm0.432,-2.376c-0.27,0 -0.36,-0.09 -0.36,-0.36l0,-7.128c0,-0.27 0.09,-0.36 0.36,-0.36l3.762,0c0.27,0 0.36,0.09 0.36,0.36l0,7.128c0,0.27 -0.09,0.36 -0.36,0.36l-3.762,0Z" style="fill:#fff;fill-rule:nonzero;"/><path d="M179.928,12.6l4.392,0c1.71,0 2.52,-0.81 2.52,-2.52l0,-10.08l-2.592,0l0,9.864c0,0.27 -0.09,0.36 -0.36,0.36l-3.528,0c-0.27,0 -0.36,-0.09 -0.36,-0.36l0,-9.864l-2.592,0l0,10.08c0,1.71 0.81,2.52 2.52,2.52Z" style="fill:#fff;fill-rule:nonzero;"/><path d="M196.974,8.01c1.188,-0.216 1.746,-1.026 1.746,-2.448l0,-3.042c0,-1.71 -0.81,-2.52 -2.52,-2.52l-6.642,0l0,12.6l2.592,0l0,-4.446l2.088,0l2.088,4.446l2.79,0l-2.142,-4.59Zm-4.824,-2.16l0,-3.51l3.618,0c0.27,0 0.36,0.09 0.36,0.36l0,2.79c0,0.27 -0.09,0.36 -0.36,0.36l-3.618,0Z" style="fill:#fff;fill-rule:nonzero;"/><rect x="201.258" y="0" width="2.592" height="12.6" style="fill:#fff;fill-rule:nonzero;"/><path d="M206.694,12.6l8.478,0l0,-2.376l-5.886,0l0,-2.898l4.77,0l0,-2.34l-4.77,0l0,-2.61l5.886,0l0,-2.376l-8.478,0l0,12.6Z" style="fill:#fff;fill-rule:nonzero;"/><path d="M224.874,8.01c1.188,-0.216 1.746,-1.026 1.746,-2.448l0,-3.042c0,-1.71 -0.81,-2.52 -2.52,-2.52l-6.642,0l0,12.6l2.592,0l0,-4.446l2.088,0l2.088,4.446l2.79,0l-2.142,-4.59Zm-4.824,-2.16l0,-3.51l3.618,0c0.27,0 0.36,0.09 0.36,0.36l0,2.79c0,0.27 -0.09,0.36 -0.36,0.36l-3.618,0Z" style="fill:#fff;fill-rule:nonzero;"/><path d="M231.3,12.6l4.14,0c1.71,0 2.52,-0.81 2.52,-2.52l0,-2.088c0,-1.62 -1.008,-2.25 -2.592,-2.592l-3.348,-0.72c-0.468,-0.108 -0.612,-0.216 -0.612,-0.612l0,-1.368c0,-0.27 0.09,-0.36 0.36,-0.36l3.096,0c0.27,0 0.36,0.09 0.36,0.36l0,1.26l2.52,0l0,-1.44c0,-1.71 -0.81,-2.52 -2.52,-2.52l-3.888,0c-1.71,0 -2.52,0.81 -2.52,2.52l0,1.944c0,1.62 1.008,2.25 2.592,2.592l3.348,0.72c0.468,0.108 0.612,0.216 0.612,0.612l0,1.512c0,0.27 -0.09,0.36 -0.36,0.36l-3.348,0c-0.27,0 -0.36,-0.09 -0.36,-0.36l0,-1.404l-2.52,0l0,1.584c0,1.71 0.81,2.52 2.52,2.52Z" style="fill:#fff;fill-rule:nonzero;"/></svg>