<?xml version="1.0" encoding="UTF-8" standalone="no"?><!DOCTYPE svg PUBLIC "-//W3C//DTD SVG 1.1//EN" "http://www.w3.org/Graphics/SVG/1.1/DTD/svg11.dtd"><svg width="867px" height="139px" version="1.1" xmlns="http://www.w3.org/2000/svg" xmlns:xlink="http://www.w3.org/1999/xlink" xml:space="preserve" style="fill-rule:evenodd;clip-rule:evenodd;stroke-linejoin:round;stroke-miterlimit:1.41421;"><g transform="matrix(0.895754,0,0,1.01334,-1.58122,-152.526)"><g transform="matrix(1.72015,0,0,1.07,-149.983,-17.109)"><path d="M222.81,244.414l16.704,0c6.84,0 10.08,-3.24 10.08,-10.08l0,-8.208l-10.368,0l0,7.344c0,1.08 -0.36,1.44 -1.44,1.44l-13.248,0c-1.08,0 -1.44,-0.36 -1.44,-1.44l0,-28.512c0,-1.08 0.36,-1.44 1.44,-1.44l13.248,0c1.08,0 1.44,0.36 1.44,1.44l0,7.344l10.368,0l0,-8.208c0,-6.84 -3.24,-10.08 -10.08,-10.08l-16.704,0c-6.84,0 -10.08,3.24 -10.08,10.08l0,30.24c0,6.84 3.24,10.08 10.08,10.08Z" style="fill:none;"/><path d="M255.21,244.414l10.368,0l0,-21.024l17.856,0l0,21.024l10.368,0l0,-50.4l-10.368,0l0,19.872l-17.856,0l0,-19.872l-10.368,0l0,50.4Z" style="fill:none;"/><path d="M331.458,244.414l11.376,0l-15.336,-50.4l-15.12,0l-15.336,50.4l10.944,0l3.096,-10.944l17.28,0l3.096,10.944Zm-17.712,-20.448l5.976,-21.168l5.976,21.168l-11.952,0Z" style="fill:none;"/><rect x="346.074" y="194.014" width="10.368" height="50.4" style="fill:none;"/><path d="M364.218,244.414l10.08,0l0,-33.624l19.8,33.624l10.08,0l0,-50.4l-10.08,0l0,32.472l-19.08,-32.472l-10.8,0l0,50.4Z" style="fill:none;"/><path d="M425.634,244.414l32.112,0l0,-9.504l-21.744,0l0,-40.896l-10.368,0l0,50.4Z" style="fill:none;"/><rect x="461.994" y="194.014" width="10.368" height="50.4" style="fill:none;"/><path d="M480.138,244.414l10.08,0l0,-33.624l19.8,33.624l10.08,0l0,-50.4l-10.08,0l0,32.472l-19.08,-32.472l-10.8,0l0,50.4Z" style="fill:none;"/><path d="M527.874,244.414l33.912,0l0,-9.504l-23.544,0l0,-11.592l19.08,0l0,-9.36l-19.08,0l0,-10.44l23.544,0l0,-9.504l-33.912,0l0,50.4Z" style="fill:none;"/></g><g transform="matrix(1.4768,0,0,1.07,-403.929,-15.5418)"><path d="M850.491,222.026l5.793,0l0,-18.721l6.338,14.817l4.45,0l6.338,-14.817l0,18.721l5.961,0l0,-29.383l-6.632,0l-7.808,17.294l-7.807,-17.294l-6.633,0l0,29.383Z" style="fill:none;"/><path d="M890.453,222.026l7.051,0l9.109,-29.383l-6.464,0l-6.087,22.709l-6.086,-22.709l-6.632,0l9.109,29.383Z" style="fill:none;"/><path d="M908.586,222.026l6.045,0l0,-9.822l9.486,0c3.988,0 5.877,-1.889 5.877,-5.877l0,-7.808c0,-3.987 -1.889,-5.876 -5.877,-5.876l-15.531,0l0,29.383Zm6.045,-15.363l0,-8.479l8.479,0c0.629,0 0.839,0.209 0.839,0.839l0,6.8c0,0.63 -0.21,0.84 -0.839,0.84l-8.479,0Z" style="fill:none;"/></g><g transform="matrix(1.72015,0,0,1.07,-149.983,-17.109)"><path d="M222.81,244.414l16.704,0c6.84,0 10.08,-3.24 10.08,-10.08l0,-8.208l-10.368,0l0,7.344c0,1.08 -0.36,1.44 -1.44,1.44l-13.248,0c-1.08,0 -1.44,-0.36 -1.44,-1.44l0,-28.512c0,-1.08 0.36,-1.44 1.44,-1.44l13.248,0c1.08,0 1.44,0.36 1.44,1.44l0,7.344l10.368,0l0,-8.208c0,-6.84 -3.24,-10.08 -10.08,-10.08l-16.704,0c-6.84,0 -10.08,3.24 -10.08,10.08l0,30.24c0,6.84 3.24,10.08 10.08,10.08Z" style="fill:#333;fill-rule:nonzero;"/><path d="M255.21,244.414l10.368,0l0,-21.024l17.856,0l0,21.024l10.368,0l0,-50.4l-10.368,0l0,19.872l-17.856,0l0,-19.872l-10.368,0l0,50.4Z" style="fill:#333;fill-rule:nonzero;"/><path d="M331.458,244.414l11.376,0l-15.336,-50.4l-15.12,0l-15.336,50.4l10.944,0l3.096,-10.944l17.28,0l3.096,10.944Zm-17.712,-20.448l5.976,-21.168l5.976,21.168l-11.952,0Z" style="fill:#333;fill-rule:nonzero;"/><rect x="346.074" y="194.014" width="10.368" height="50.4" style="fill:#333;fill-rule:nonzero;"/><path d="M364.218,244.414l10.08,0l0,-33.624l19.8,33.624l10.08,0l0,-50.4l-10.08,0l0,32.472l-19.08,-32.472l-10.8,0l0,50.4Z" style="fill:#333;fill-rule:nonzero;"/><path d="M425.634,244.414l32.112,0l0,-9.504l-21.744,0l0,-40.896l-10.368,0l0,50.4Z" style="fill:#333;fill-rule:nonzero;"/><rect x="461.994" y="194.014" width="10.368" height="50.4" style="fill:#333;fill-rule:nonzero;"/><path d="M480.138,244.414l10.08,0l0,-33.624l19.8,33.624l10.08,0l0,-50.4l-10.08,0l0,32.472l-19.08,-32.472l-10.8,0l0,50.4Z" style="fill:#333;fill-rule:nonzero;"/><path d="M527.874,244.414l33.912,0l0,-9.504l-23.544,0l0,-11.592l19.08,0l0,-9.36l-19.08,0l0,-10.44l23.544,0l0,-9.504l-33.912,0l0,50.4Z" style="fill:#333;fill-rule:nonzero;"/></g><g transform="matrix(1.4768,0,0,1.07,-403.929,-15.5418)"><path d="M850.491,222.026l5.793,0l0,-18.721l6.338,14.817l4.45,0l6.338,-14.817l0,18.721l5.961,0l0,-29.383l-6.632,0l-7.808,17.294l-7.807,-17.294l-6.633,0l0,29.383Z" style="fill:#a8a8a8;fill-rule:nonzero;"/><path d="M890.453,222.026l7.051,0l9.109,-29.383l-6.464,0l-6.087,22.709l-6.086,-22.709l-6.632,0l9.109,29.383Z" style="fill:#a8a8a8;fill-rule:nonzero;"/><path d="M908.586,222.026l6.045,0l0,-9.822l9.486,0c3.988,0 5.877,-1.889 5.877,-5.877l0,-7.808c0,-3.987 -1.889,-5.876 -5.877,-5.876l-15.531,0l0,29.383Zm6.045,-15.363l0,-8.479l8.479,0c0.629,0 0.839,0.209 0.839,0.839l0,6.8c0,0.63 -0.21,0.84 -0.839,0.84l-8.479,0Z" style="fill:#a8a8a8;fill-rule:nonzero;"/></g></g><path d="M138.781,34.695c0,-19.149 -15.546,-34.695 -34.695,-34.695l-69.391,0c-19.149,0 -34.695,15.546 -34.695,34.695l0,69.391c0,19.149 15.546,34.695 34.695,34.695l69.391,0c19.149,0 34.695,-15.546 34.695,-34.695l0,-69.391Z" style="fill:#61c9d9;"/><g><path d="M38.496,76.786l8.885,30.034l-3.76,1.412l-12.321,-41.651l-1.504,0.691c-1.025,0.47 -2.203,-0.107 -2.604,-1.216c-0.414,-1.142 0.057,-2.438 1.065,-2.901l12.654,-5.816l0,-14.466c0,-4.928 3.542,-8.923 7.946,-8.923l11.87,0l0,-15.674c0,-1.209 0.853,-2.19 1.944,-2.19l11.966,0c1.073,0 1.944,0.96 1.944,2.19l0,15.674l11.87,0c4.389,0 7.946,4.012 7.946,8.923l0,14.46l12.666,5.822c1.001,0.46 1.466,1.793 1.065,2.901c-0.413,1.142 -1.599,1.677 -2.604,1.216l-1.514,-0.696l-12.323,41.656l-3.76,-1.412l8.945,-30.237l-29.967,-13.764l-30.409,13.967Zm-1.257,-4.249l-2.261,-7.646l33.682,-15.47l33.672,15.466l-2.203,7.447l-29.422,-13.523c-0.974,-0.447 -2.615,-0.455 -3.617,0.006l-29.851,13.72Zm7.635,-17.02l21.972,-10.099c1.002,-0.46 2.62,-0.463 3.628,0l21.96,10.094l0,-12.588c0,-2.489 -1.806,-4.508 -3.973,-4.508l-39.614,0c-2.194,0 -3.973,1.98 -3.973,4.508l0,12.593Zm19.817,-34.965l7.926,0l0,13.398l-7.926,0l0,-13.398Z" style="fill:#fcfcff;stroke:#fff;stroke-width:0.85px;"/><path d="M67.013,50.437l1.72,44.496" style="fill:none;stroke:#fff;stroke-width:1.5px;stroke-linecap:round;stroke-miterlimit:1.5;"/><path d="M70.093,50.437l-1.278,44.626" style="fill:none;stroke:#fff;stroke-width:1.5px;stroke-linecap:round;stroke-miterlimit:1.5;"/><path d="M68.68,94.145l2.371,-45.981l-4.742,0l2.371,45.981Z" style="fill:#fcfcff;"/></g><path d="M18.793,108.031l98.541,0" style="fill:none;stroke:#cfefff;stroke-width:9.5px;stroke-miterlimit:1.5;"/></svg>