<?xml version="1.0" encoding="UTF-8" standalone="no"?><!DOCTYPE svg PUBLIC "-//W3C//DTD SVG 1.1//EN" "http://www.w3.org/Graphics/SVG/1.1/DTD/svg11.dtd"><svg width="180px" height="180px" version="1.1" xmlns="http://www.w3.org/2000/svg" xmlns:xlink="http://www.w3.org/1999/xlink" xml:space="preserve" style="fill-rule:evenodd;clip-rule:evenodd;stroke-linejoin:round;stroke-miterlimit:1.41421;"><g><g><path d="M48.656,102.764l11.62,41.008l-4.918,1.928l-16.114,-56.871l-1.967,0.944c-1.341,0.642 -2.881,-0.146 -3.406,-1.66c-0.54,-1.559 0.075,-3.329 1.394,-3.962l16.549,-7.941l0,-19.751c0,-6.729 4.633,-12.183 10.392,-12.183l15.526,0l0,-21.401c0,-1.652 1.114,-2.991 2.542,-2.991l15.649,0c1.404,0 2.543,1.311 2.543,2.991l0,21.401l15.525,0c5.74,0 10.392,5.477 10.392,12.183l0,19.744l16.565,7.948c1.31,0.629 1.918,2.448 1.394,3.962c-0.541,1.559 -2.092,2.29 -3.406,1.66l-1.981,-0.95l-16.116,56.877l-4.917,-1.928l11.698,-41.286l-39.193,-18.792l-39.771,19.07Zm-1.644,-5.802l-2.958,-10.439l44.052,-21.123l44.039,21.116l-2.882,10.169l-38.48,-18.465c-1.273,-0.61 -3.419,-0.62 -4.73,0.009l-39.041,18.733Zm9.985,-23.239l28.737,-13.789c1.31,-0.629 3.426,-0.633 4.745,0l28.721,13.782l0,-17.187c0,-3.4 -2.363,-6.155 -5.196,-6.155l-51.81,0c-2.87,0 -5.197,2.703 -5.197,6.155l0,17.194Zm25.918,-47.741l10.367,0l0,18.294l-10.367,0l0,-18.294Z" style="fill:#595959;"/><path d="M88.133,126.466l3.101,-62.783l-6.203,0l3.102,62.783Z" style="fill:#595959;"/></g><path d="M85.952,66.787l2.249,60.754" style="fill:#595959;"/><path d="M89.98,66.787l-1.67,60.932" style="fill:#595959;"/></g></svg>