<?xml version="1.0" encoding="UTF-8" standalone="no"?><!DOCTYPE svg PUBLIC "-//W3C//DTD SVG 1.1//EN" "http://www.w3.org/Graphics/SVG/1.1/DTD/svg11.dtd"><svg width="864px" height="131px" version="1.1" xmlns="http://www.w3.org/2000/svg" xmlns:xlink="http://www.w3.org/1999/xlink" xml:space="preserve" style="fill-rule:evenodd;clip-rule:evenodd;stroke-linecap:square;stroke-linejoin:round;stroke-miterlimit:1.41421;"><g transform="matrix(0.894458,0,0,0.945109,-3.23856,-139.359)"><g transform="matrix(1.72015,0,0,1.07,-149.983,-17.109)"><path d="M222.81,244.414l16.704,0c6.84,0 10.08,-3.24 10.08,-10.08l0,-8.208l-10.368,0l0,7.344c0,1.08 -0.36,1.44 -1.44,1.44l-13.248,0c-1.08,0 -1.44,-0.36 -1.44,-1.44l0,-28.512c0,-1.08 0.36,-1.44 1.44,-1.44l13.248,0c1.08,0 1.44,0.36 1.44,1.44l0,7.344l10.368,0l0,-8.208c0,-6.84 -3.24,-10.08 -10.08,-10.08l-16.704,0c-6.84,0 -10.08,3.24 -10.08,10.08l0,30.24c0,6.84 3.24,10.08 10.08,10.08Z" style="fill:none;"/><path d="M255.21,244.414l10.368,0l0,-21.024l17.856,0l0,21.024l10.368,0l0,-50.4l-10.368,0l0,19.872l-17.856,0l0,-19.872l-10.368,0l0,50.4Z" style="fill:none;"/><path d="M331.458,244.414l11.376,0l-15.336,-50.4l-15.12,0l-15.336,50.4l10.944,0l3.096,-10.944l17.28,0l3.096,10.944Zm-17.712,-20.448l5.976,-21.168l5.976,21.168l-11.952,0Z" style="fill:none;"/><rect x="346.074" y="194.014" width="10.368" height="50.4" style="fill:none;"/><path d="M364.218,244.414l10.08,0l0,-33.624l19.8,33.624l10.08,0l0,-50.4l-10.08,0l0,32.472l-19.08,-32.472l-10.8,0l0,50.4Z" style="fill:none;"/><path d="M425.634,244.414l32.112,0l0,-9.504l-21.744,0l0,-40.896l-10.368,0l0,50.4Z" style="fill:none;"/><rect x="461.994" y="194.014" width="10.368" height="50.4" style="fill:none;"/><path d="M480.138,244.414l10.08,0l0,-33.624l19.8,33.624l10.08,0l0,-50.4l-10.08,0l0,32.472l-19.08,-32.472l-10.8,0l0,50.4Z" style="fill:none;"/><path d="M527.874,244.414l33.912,0l0,-9.504l-23.544,0l0,-11.592l19.08,0l0,-9.36l-19.08,0l0,-10.44l23.544,0l0,-9.504l-33.912,0l0,50.4Z" style="fill:none;"/></g><g transform="matrix(1.4768,0,0,1.07,-403.929,-15.5418)"><path d="M850.491,222.026l5.793,0l0,-18.721l6.338,14.817l4.45,0l6.338,-14.817l0,18.721l5.961,0l0,-29.383l-6.632,0l-7.808,17.294l-7.807,-17.294l-6.633,0l0,29.383Z" style="fill:none;"/><path d="M890.453,222.026l7.051,0l9.109,-29.383l-6.464,0l-6.087,22.709l-6.086,-22.709l-6.632,0l9.109,29.383Z" style="fill:none;"/><path d="M908.586,222.026l6.045,0l0,-9.822l9.486,0c3.988,0 5.877,-1.889 5.877,-5.877l0,-7.808c0,-3.987 -1.889,-5.876 -5.877,-5.876l-15.531,0l0,29.383Zm6.045,-15.363l0,-8.479l8.479,0c0.629,0 0.839,0.209 0.839,0.839l0,6.8c0,0.63 -0.21,0.84 -0.839,0.84l-8.479,0Z" style="fill:none;"/></g><g transform="matrix(1.72015,0,0,1.07,-149.983,-17.109)"><path d="M222.81,244.414l16.704,0c6.84,0 10.08,-3.24 10.08,-10.08l0,-8.208l-10.368,0l0,7.344c0,1.08 -0.36,1.44 -1.44,1.44l-13.248,0c-1.08,0 -1.44,-0.36 -1.44,-1.44l0,-28.512c0,-1.08 0.36,-1.44 1.44,-1.44l13.248,0c1.08,0 1.44,0.36 1.44,1.44l0,7.344l10.368,0l0,-8.208c0,-6.84 -3.24,-10.08 -10.08,-10.08l-16.704,0c-6.84,0 -10.08,3.24 -10.08,10.08l0,30.24c0,6.84 3.24,10.08 10.08,10.08Z" style="fill:#333;fill-rule:nonzero;"/><path d="M255.21,244.414l10.368,0l0,-21.024l17.856,0l0,21.024l10.368,0l0,-50.4l-10.368,0l0,19.872l-17.856,0l0,-19.872l-10.368,0l0,50.4Z" style="fill:#333;fill-rule:nonzero;"/><path d="M331.458,244.414l11.376,0l-15.336,-50.4l-15.12,0l-15.336,50.4l10.944,0l3.096,-10.944l17.28,0l3.096,10.944Zm-17.712,-20.448l5.976,-21.168l5.976,21.168l-11.952,0Z" style="fill:#333;fill-rule:nonzero;"/><rect x="346.074" y="194.014" width="10.368" height="50.4" style="fill:#333;fill-rule:nonzero;"/><path d="M364.218,244.414l10.08,0l0,-33.624l19.8,33.624l10.08,0l0,-50.4l-10.08,0l0,32.472l-19.08,-32.472l-10.8,0l0,50.4Z" style="fill:#333;fill-rule:nonzero;"/><path d="M425.634,244.414l32.112,0l0,-9.504l-21.744,0l0,-40.896l-10.368,0l0,50.4Z" style="fill:#333;fill-rule:nonzero;"/><rect x="461.994" y="194.014" width="10.368" height="50.4" style="fill:#333;fill-rule:nonzero;"/><path d="M480.138,244.414l10.08,0l0,-33.624l19.8,33.624l10.08,0l0,-50.4l-10.08,0l0,32.472l-19.08,-32.472l-10.8,0l0,50.4Z" style="fill:#333;fill-rule:nonzero;"/><path d="M527.874,244.414l33.912,0l0,-9.504l-23.544,0l0,-11.592l19.08,0l0,-9.36l-19.08,0l0,-10.44l23.544,0l0,-9.504l-33.912,0l0,50.4Z" style="fill:#333;fill-rule:nonzero;"/></g><g transform="matrix(1.4768,0,0,1.07,-403.929,-15.5418)"><path d="M850.491,222.026l5.793,0l0,-18.721l6.338,14.817l4.45,0l6.338,-14.817l0,18.721l5.961,0l0,-29.383l-6.632,0l-7.808,17.294l-7.807,-17.294l-6.633,0l0,29.383Z" style="fill:#a8a8a8;fill-rule:nonzero;"/><path d="M890.453,222.026l7.051,0l9.109,-29.383l-6.464,0l-6.087,22.709l-6.086,-22.709l-6.632,0l9.109,29.383Z" style="fill:#a8a8a8;fill-rule:nonzero;"/><path d="M908.586,222.026l6.045,0l0,-9.822l9.486,0c3.988,0 5.877,-1.889 5.877,-5.877l0,-7.808c0,-3.987 -1.889,-5.876 -5.877,-5.876l-15.531,0l0,29.383Zm6.045,-15.363l0,-8.479l8.479,0c0.629,0 0.839,0.209 0.839,0.839l0,6.8c0,0.63 -0.21,0.84 -0.839,0.84l-8.479,0Z" style="fill:#a8a8a8;fill-rule:nonzero;"/></g></g><path d="M33.528,82.313l12.186,39.986l-5.157,1.88l-16.901,-55.453l-2.063,0.92c-1.406,0.627 -3.022,-0.142 -3.572,-1.618c-0.567,-1.52 0.078,-3.246 1.462,-3.863l17.356,-7.743l0,-19.259c0,-6.561 4.86,-11.879 10.9,-11.879l16.283,0l0,-20.868c0,-1.61 1.169,-2.916 2.667,-2.916l16.413,0c1.472,0 2.666,1.279 2.666,2.916l0,20.868l16.283,0c6.02,0 10.9,5.341 10.9,11.879l0,19.252l17.373,7.75c1.374,0.613 2.012,2.387 1.461,3.863c-0.566,1.52 -2.193,2.233 -3.571,1.618l-2.078,-0.926l-16.903,55.459l-5.157,-1.88l12.269,-40.256l-41.105,-18.324l-41.712,18.594Zm-1.724,-5.656l-3.103,-10.18l46.202,-20.596l46.188,20.59l-3.022,9.915l-40.358,-18.004c-1.335,-0.596 -3.586,-0.605 -4.961,0.008l-40.946,18.267Zm10.472,-22.66l30.139,-13.445c1.374,-0.613 3.593,-0.617 4.977,0l30.122,13.438l0,-16.759c0,-3.314 -2.477,-6.001 -5.45,-6.001l-54.338,0c-3.01,0 -5.45,2.636 -5.45,6.001l0,16.766Zm27.183,-46.551l10.873,0l0,17.838l-10.873,0l0,-17.838Z" style="fill:none;stroke:#333;stroke-width:3px;"/><path d="M33.528,82.313l12.186,39.986l-5.157,1.88l-16.901,-55.453l-2.063,0.92c-1.406,0.627 -3.022,-0.142 -3.572,-1.618c-0.567,-1.52 0.078,-3.246 1.462,-3.863l17.356,-7.743l0,-19.259c0,-6.561 4.86,-11.879 10.9,-11.879l16.283,0l0,-20.868c0,-1.61 1.169,-2.916 2.667,-2.916l16.413,0c1.472,0 2.666,1.279 2.666,2.916l0,20.868l16.283,0c6.02,0 10.9,5.341 10.9,11.879l0,19.252l17.373,7.75c1.374,0.613 2.012,2.387 1.461,3.863c-0.566,1.52 -2.193,2.233 -3.571,1.618l-2.078,-0.926l-16.903,55.459l-5.157,-1.88l12.269,-40.256l-41.105,-18.324l-41.712,18.594Zm-1.724,-5.656l-3.103,-10.18l46.202,-20.596l46.188,20.59l-3.022,9.915l-40.358,-18.004c-1.335,-0.596 -3.586,-0.605 -4.961,0.008l-40.946,18.267Zm10.472,-22.66l30.139,-13.445c1.374,-0.613 3.593,-0.617 4.977,0l30.122,13.438l0,-16.759c0,-3.314 -2.477,-6.001 -5.45,-6.001l-54.338,0c-3.01,0 -5.45,2.636 -5.45,6.001l0,16.766Zm27.183,-46.551l10.873,0l0,17.838l-10.873,0l0,-17.838Z" style="fill:#333;"/><path d="M72.644,47.234l2.359,59.239" style="fill:none;stroke:#fff;stroke-width:1.5px;stroke-linecap:round;stroke-miterlimit:1.5;"/><path d="M76.869,47.234l-1.752,59.412" style="fill:none;stroke:#fff;stroke-width:1.5px;stroke-linecap:round;stroke-miterlimit:1.5;"/><path d="M74.588,105.423l3.938,-61.18l-6.505,-0.069l2.567,61.249Z" style="fill:#333;stroke:#333;stroke-width:3px;stroke-linecap:round;stroke-miterlimit:1.5;"/><path d="M6.5,123.911l135.17,0" style="fill:none;stroke:#65c9ce;stroke-width:13px;stroke-linecap:butt;stroke-miterlimit:1.5;"/></svg>