<?xml version="1.0" encoding="UTF-8" standalone="no"?><!DOCTYPE svg PUBLIC "-//W3C//DTD SVG 1.1//EN" "http://www.w3.org/Graphics/SVG/1.1/DTD/svg11.dtd"><svg width="180px" height="180px" version="1.1" xmlns="http://www.w3.org/2000/svg" xmlns:xlink="http://www.w3.org/1999/xlink" xml:space="preserve" style="fill-rule:evenodd;clip-rule:evenodd;stroke-linejoin:round;stroke-miterlimit:1.41421;"><rect id="_.28.Rectangle.29." x="-56.166" y="146.388" width="337.127" height="51.1" style="fill:#fff;"/><g id="Layer1"><path d="M199.282,133.93c-0.806,-0.601 -1.919,-0.973 -3.149,-0.973c-2.461,0 -4.455,1.488 -4.455,3.323c0,5.507 -5.983,9.971 -13.364,9.971c-7.38,0 -13.363,-4.464 -13.363,-9.971c0,-1.835 -1.995,-3.323 -4.455,-3.323c-1.23,0 -2.344,0.372 -3.15,0.973c-0.806,0.602 -1.304,1.433 -1.304,2.35c0,5.507 -5.984,9.971 -13.364,9.971c-7.381,0 -13.364,-4.464 -13.364,-9.971c0,-0.917 -0.498,-1.748 -1.305,-2.35c-0.806,-0.601 -1.919,-0.973 -3.149,-0.973c-2.461,0 -4.455,1.488 -4.455,3.323c0,5.507 -5.983,9.971 -13.364,9.971c-7.38,0 -13.363,-4.464 -13.363,-9.971c0,-1.835 -1.995,-3.323 -4.455,-3.323c-1.23,0 -2.344,0.372 -3.15,0.973c-0.806,0.602 -1.305,1.433 -1.305,2.35c0,5.507 -5.983,9.971 -13.363,9.971c-7.381,0 -13.364,-4.464 -13.364,-9.971c0,-0.917 -0.499,-1.748 -1.305,-2.35c-0.806,-0.601 -1.919,-0.973 -3.15,-0.973c-2.46,0 -4.454,1.488 -4.454,3.323c0,5.507 -5.983,9.971 -13.364,9.971c-7.38,0 -13.364,-4.464 -13.364,-9.971c0,-1.835 -1.994,-3.323 -4.454,-3.323c-1.23,0 -2.344,0.372 -3.15,0.973c-0.806,0.602 -1.305,1.433 -1.305,2.35c0,5.507 -5.983,9.971 -13.363,9.971c-7.381,0 -13.364,-4.464 -13.364,-9.971c0,-1.835 -1.994,-3.323 -4.455,-3.323c-2.46,0 -4.454,1.488 -4.454,3.323c0,9.178 9.972,16.618 22.273,16.618c7.286,0 13.754,-2.61 17.818,-6.646c4.063,4.036 10.532,6.646 17.818,6.646c7.286,0 13.755,-2.61 17.818,-6.646c4.064,4.036 10.533,6.646 17.819,6.646c7.286,0 13.754,-2.61 17.818,-6.646c4.064,4.036 10.532,6.646 17.818,6.646c7.286,0 13.755,-2.61 17.819,-6.646c4.063,4.036 10.532,6.646 17.818,6.646c7.286,0 13.754,-2.61 17.818,-6.646c4.064,4.036 10.532,6.646 17.818,6.646c7.286,0 13.755,-2.61 17.819,-6.646c4.063,4.036 10.532,6.646 17.818,6.646c12.301,0 22.273,-7.44 22.273,-16.618c0,-1.835 -1.995,-3.323 -4.455,-3.323c-2.46,0 -4.454,1.488 -4.454,3.323c0,5.507 -5.984,9.971 -13.364,9.971c-7.381,0 -13.364,-4.464 -13.364,-9.971c0,-0.917 -0.498,-1.748 -1.305,-2.35Z" style="fill:#60cfff;stroke:#ebf9ff;stroke-width:0.05px;"/></g></svg>