<?xml version="1.0" encoding="UTF-8" standalone="no"?><!DOCTYPE svg PUBLIC "-//W3C//DTD SVG 1.1//EN" "http://www.w3.org/Graphics/SVG/1.1/DTD/svg11.dtd"><svg width="172px" height="20px" version="1.1" xmlns="http://www.w3.org/2000/svg" xmlns:xlink="http://www.w3.org/1999/xlink" xml:space="preserve" style="fill-rule:evenodd;clip-rule:evenodd;stroke-linejoin:round;stroke-miterlimit:1.41421;"><g transform="matrix(0.384335,0,0,0.445989,-80.0437,-92.3065)"><g transform="matrix(1.72015,0,0,1.07,-149.983,-17.109)"><path d="M220.064,244.414l4.799,0l0,-30.645l10.348,0l0,-4.349l-25.446,0l0,4.349l10.299,0l0,30.645Z" style="fill:none;"/><path d="M257.207,230.566c4.099,-0.3 6.049,-2.549 6.049,-6.948l0,-7.199c0,-4.749 -2.249,-6.999 -6.999,-6.999l-17.547,0l0,34.994l4.8,0l0,-13.748l8.448,0l7.149,13.748l5.249,0l-7.149,-13.848Zm-13.697,-4.249l0,-12.548l12.197,0c2,0 2.75,0.75 2.75,2.75l0,7.099c0,1.949 -0.75,2.699 -2.75,2.699l-12.197,0Z" style="fill:none;"/><path d="M290.901,244.414l5.249,0l-12.147,-34.994l-6.199,0l-12.148,34.994l4.999,0l3.199,-9.548l13.848,0l3.199,9.548Zm-15.597,-13.948l5.499,-16.397l5.449,16.397l-10.948,0Z" style="fill:none;"/><path d="M305.549,244.414l10.798,0c4.749,0 6.999,-2.4 6.999,-6.999l0,-4.449l-4.799,0l0,4.299c0,2 -0.75,2.75 -2.75,2.75l-9.748,0c-1.95,0 -2.7,-0.75 -2.7,-2.75l0,-20.696c0,-2 0.75,-2.75 2.7,-2.75l9.748,0c2,0 2.75,0.75 2.75,2.75l0,4.299l4.799,0l0,-4.449c0,-4.749 -2.25,-6.999 -6.999,-6.999l-10.798,0c-4.749,0 -6.999,2.25 -6.999,6.999l0,20.996c0,4.599 2.25,6.999 6.999,6.999Z" style="fill:none;"/><path d="M355.99,244.414l-12.948,-20.996l11.998,-13.998l-5.749,0l-16.147,19.147l0,-19.147l-4.799,0l0,34.994l4.799,0l0,-9.448l6.699,-7.799l10.648,17.247l5.499,0Z" style="fill:none;"/><rect x="357.99" y="209.42" width="4.799" height="34.994" style="fill:none;"/><path d="M369.338,244.414l4.599,0l0,-27.795l17.047,27.795l4.799,0l0,-34.994l-4.599,0l0,27.245l-16.647,-27.245l-5.199,0l0,34.994Z" style="fill:none;"/><path d="M408.481,244.414l11.148,0c4.749,0 6.999,-2.25 6.999,-6.999l0,-11.548l-13.098,0l0,4.3l8.299,0l0,7.098c0,2 -0.75,2.75 -2.7,2.75l-10.148,0c-1.95,0 -2.7,-0.75 -2.7,-2.75l0,-20.696c0,-2 0.75,-2.75 2.7,-2.75l10.148,0c1.95,0 2.7,0.75 2.7,2.75l0,3.599l4.799,0l0,-3.749c0,-4.749 -2.25,-6.999 -6.999,-6.999l-11.148,0c-4.749,0 -6.999,2.25 -6.999,6.999l0,20.996c0,4.749 2.25,6.999 6.999,6.999Z" style="fill:none;"/></g><g transform="matrix(1.72015,0,0,1.07,-149.983,-17.109)"><path d="M220.064,244.414l4.799,0l0,-30.645l10.348,0l0,-4.349l-25.446,0l0,4.349l10.299,0l0,30.645Z" style="fill:#333;fill-rule:nonzero;"/><path d="M257.207,230.566c4.099,-0.3 6.049,-2.549 6.049,-6.948l0,-7.199c0,-4.749 -2.249,-6.999 -6.999,-6.999l-17.547,0l0,34.994l4.8,0l0,-13.748l8.448,0l7.149,13.748l5.249,0l-7.149,-13.848Zm-13.697,-4.249l0,-12.548l12.197,0c2,0 2.75,0.75 2.75,2.75l0,7.099c0,1.949 -0.75,2.699 -2.75,2.699l-12.197,0Z" style="fill:#333;fill-rule:nonzero;"/><path d="M290.901,244.414l5.249,0l-12.147,-34.994l-6.199,0l-12.148,34.994l4.999,0l3.199,-9.548l13.848,0l3.199,9.548Zm-15.597,-13.948l5.499,-16.397l5.449,16.397l-10.948,0Z" style="fill:#333;fill-rule:nonzero;"/><path d="M305.549,244.414l10.798,0c4.749,0 6.999,-2.4 6.999,-6.999l0,-4.449l-4.799,0l0,4.299c0,2 -0.75,2.75 -2.75,2.75l-9.748,0c-1.95,0 -2.7,-0.75 -2.7,-2.75l0,-20.696c0,-2 0.75,-2.75 2.7,-2.75l9.748,0c2,0 2.75,0.75 2.75,2.75l0,4.299l4.799,0l0,-4.449c0,-4.749 -2.25,-6.999 -6.999,-6.999l-10.798,0c-4.749,0 -6.999,2.25 -6.999,6.999l0,20.996c0,4.599 2.25,6.999 6.999,6.999Z" style="fill:#333;fill-rule:nonzero;"/><path d="M355.99,244.414l-12.948,-20.996l11.998,-13.998l-5.749,0l-16.147,19.147l0,-19.147l-4.799,0l0,34.994l4.799,0l0,-9.448l6.699,-7.799l10.648,17.247l5.499,0Z" style="fill:#333;fill-rule:nonzero;"/><rect x="357.99" y="209.42" width="4.799" height="34.994" style="fill:#333;fill-rule:nonzero;"/><path d="M369.338,244.414l4.599,0l0,-27.795l17.047,27.795l4.799,0l0,-34.994l-4.599,0l0,27.245l-16.647,-27.245l-5.199,0l0,34.994Z" style="fill:#333;fill-rule:nonzero;"/><path d="M408.481,244.414l11.148,0c4.749,0 6.999,-2.25 6.999,-6.999l0,-11.548l-13.098,0l0,4.3l8.299,0l0,7.098c0,2 -0.75,2.75 -2.7,2.75l-10.148,0c-1.95,0 -2.7,-0.75 -2.7,-2.75l0,-20.696c0,-2 0.75,-2.75 2.7,-2.75l10.148,0c1.95,0 2.7,0.75 2.7,2.75l0,3.599l4.799,0l0,-3.749c0,-4.749 -2.25,-6.999 -6.999,-6.999l-11.148,0c-4.749,0 -6.999,2.25 -6.999,6.999l0,20.996c0,4.749 2.25,6.999 6.999,6.999Z" style="fill:#333;fill-rule:nonzero;"/></g><rect x="208.266" y="248.163" width="381.723" height="2.5" style="fill:#333;"/></g><path d="M164.976,0.998l1.152,3.547l2.222,-1.096l-0.357,2.451l3.73,0l-3.017,2.193l1.729,1.773l-2.442,0.419l1.153,3.547l-3.018,-2.192l-1.152,2.192l-1.153,-2.192l-3.017,2.192l1.152,-3.547l-2.441,-0.419l1.729,-1.773l-3.017,-2.193l3.729,0l-0.356,-2.451l2.221,1.096l1.153,-3.547Z" style="fill:#333;"/></svg>