<svg version="1" xmlns="http://www.w3.org/2000/svg" width="933.333" height="933.333" viewBox="0 0 700.000000 700.000000"><path d="M151.1 1.6C99.1 8.7 53 39.1 24.8 85c-7.9 12.9-15.7 31.7-19.7 47.5C-.1 153 0 150 0 349.5c0 161.3.2 186.9 1.5 197.2C11.6 624 71.3 684.8 149 697.1c12.5 2 389.9 2 401 .1 39.9-7.2 70.7-22.9 97.5-49.7 26.8-26.8 42.5-57.6 49.7-97.5 1.9-11.1 1.9-388.5-.1-401-4.2-26.8-15.3-54-30.9-76-8-11.3-25.6-29.4-36.7-37.6-19.2-14.4-41.2-24.8-65-30.8C546.2 0 546.2 0 348.2.1 193.6.2 159.7.4 151.1 1.6zm229.5 79c6.9 3.3 6.9 3.3 7.2 48.1l.3 40.2 32.7.3c31 .3 33 .5 38.2 2.6 11.4 4.6 21.2 15 25.5 27.2 1.8 5 2 9.1 2.5 47l.5 41.5 32.5 15c35.7 16.5 37 17.4 37 25.7 0 10.3-8.6 15.5-18.5 11.4-3.4-1.5-3.4-1.4-4.4 1.7-.6 1.8-12.5 42.1-26.6 89.7-14 47.6-25.8 87.3-26.1 88.2-.5 1.7 2.5 1.8 54 1.8H590v46H95v-46h57.5c33.7 0 57.5-.4 57.5-.9 0-1.1-53-180.3-53.6-181.3-.3-.4-1.8-.1-3.4.7-10.3 5.3-20.9-3.6-17.9-14.8.6-2.2 2.1-4.9 3.4-6.1 1.3-1.1 16.5-8.6 33.8-16.5l31.6-14.5.4-41c.4-43.7.4-44.3 5.6-54.4 3.2-6.2 12.3-15.5 18.3-18.5 8.2-4.1 13.8-4.7 45.9-4.7H304v-40c0-42.3.1-43.1 4.6-47.1 1.1-1 2.8-1.9 3.9-2.2 1.1-.2 16.1-.5 33.3-.6 27.2-.1 31.9.1 34.8 1.5z"/><path d="M328 137v32h36l-.2-31.8-.3-31.7-17.7-.3-17.8-.2v32zM242.4 195.9c-5.1 1.3-9.5 5.1-12 10.5-2.4 5-2.4 5.5-2.4 37.3 0 17.8.3 32.3.6 32.3s25.1-11.3 55.2-25.1c57.9-26.6 60.6-27.6 68.7-24.9 2.1.7 27.7 12.2 56.9 25.6 29.1 13.4 53.4 24.4 53.8 24.4.5 0 .8-14 .6-32.3-.3-34.7-.6-36.6-6.1-42.5-5.6-6.1 1.4-5.7-110.2-5.9-56.1 0-103.4.2-105.1.6z"/><path d="M356.6 264.3c-.3 4.5-.7 13-1 18.8l-.5 10.5 73.5 33.8c40.5 18.6 73.8 33.5 74.2 33.1 1.2-1.1 10-32 9.3-32.7-.3-.4-34.6-16.3-76.1-35.3-41.5-19.1-76.2-35.1-77.2-35.6-1.4-.8-1.7.1-2.2 7.4zM255.8 292.3c-42.2 19.3-76.8 35.6-76.8 36.2 0 2.1 9.6 33.5 10.3 33.5.9 0 144.9-66 146-67 1.2-1.1-.4-38-1.7-38-.6 0-35.6 15.9-77.8 35.3zM354 326.2c.1 20.3-4.4 153.6-5.2 154.5-1.3 1.6-3.3 1.6-4.6 0-.5-.7-2.1-31-3.6-73.2-1.5-39.6-3-74.7-3.4-78.1l-.7-6.1-70 32.2c-38.5 17.7-69.9 32.6-69.9 33.1.3 1.4 37.6 127.7 38.5 130.1l.9 2.3h109.9c103.9 0 110-.1 110.5-1.8 6.4-21 38.6-130.8 38.6-131.6 0-.8-131.7-62.3-140.1-65.4-.5-.2-.9 1.6-.9 4z"/></svg>